<svg width="192" height="192" viewBox="0 0 192 192" fill="none" xmlns="http://www.w3.org/2000/svg">
  <rect width="192" height="192" rx="24" fill="#020617"/>
  <path d="M96 40C96 35.5817 99.5817 32 104 32H120C124.418 32 128 35.5817 128 40V56C128 60.4183 124.418 64 120 64H104C99.5817 64 96 60.4183 96 56V40Z" fill="#22C55E"/>
  <path d="M64 72C64 67.5817 67.5817 64 72 64H88C92.4183 64 96 67.5817 96 72V88C96 92.4183 92.4183 96 88 96H72C67.5817 96 64 92.4183 64 88V72Z" fill="#F59E0B"/>
  <path d="M96 104C96 99.5817 99.5817 96 104 96H120C124.418 96 128 99.5817 128 104V120C128 124.418 124.418 128 120 128H104C99.5817 128 96 124.418 96 120V104Z" fill="#EF4444"/>
  <path d="M64 136C64 131.582 67.5817 128 72 128H88C92.4183 128 96 131.582 96 136V152C96 156.418 92.4183 160 88 160H72C67.5817 160 64 156.418 64 152V136Z" fill="#3B82F6"/>
  <path d="M48 40C48 35.5817 51.5817 32 56 32H72C76.4183 32 80 35.5817 80 40V56C80 60.4183 76.4183 64 72 64H56C51.5817 64 48 60.4183 48 56V40Z" fill="#3B82F6"/>
  <path d="M112 72C112 67.5817 115.582 64 120 64H136C140.418 64 144 67.5817 144 72V88C144 92.4183 140.418 96 136 96H120C115.582 96 112 92.4183 112 88V72Z" fill="#22C55E"/>
  <path d="M48 104C48 99.5817 51.5817 96 56 96H72C76.4183 96 80 99.5817 80 104V120C80 124.418 76.4183 128 72 128H56C51.5817 128 48 124.418 48 120V104Z" fill="#F59E0B"/>
  <path d="M112 136C112 131.582 115.582 128 120 128H136C140.418 128 144 131.582 144 136V152C144 156.418 140.418 160 136 160H120C115.582 160 112 156.418 112 152V136Z" fill="#EF4444"/>
</svg>